<?xml version="1.0" encoding="UTF-8" standalone="no"?>
<svg
   xmlns:dc="http://purl.org/dc/elements/1.1/"
   xmlns:cc="http://creativecommons.org/ns#"
   xmlns:rdf="http://www.w3.org/1999/02/22-rdf-syntax-ns#"
   xmlns:svg="http://www.w3.org/2000/svg"
   xmlns="http://www.w3.org/2000/svg"
   xmlns:sodipodi="http://sodipodi.sourceforge.net/DTD/sodipodi-0.dtd"
   xmlns:inkscape="http://www.inkscape.org/namespaces/inkscape"
   version="1.1"
   id="svg70"
   width="1855.6614"
   height="1733.7566"
   viewBox="0 0 1855.6614 1733.7566"
   sodipodi:docname="Henry_Maths.svg"
   inkscape:export-filename="C:\Users\Jindřich\Documents\Blog\static\Henry_Maths.png"
   inkscape:export-xdpi="96"
   inkscape:export-ydpi="96"
   inkscape:version="1.0.2-2 (e86c870879, 2021-01-15)">
  <metadata
     id="metadata76">
    <rdf:RDF>
      <cc:Work
         rdf:about="">
        <dc:format>image/svg+xml</dc:format>
        <dc:type
           rdf:resource="http://purl.org/dc/dcmitype/StillImage" />
        <dc:title></dc:title>
      </cc:Work>
    </rdf:RDF>
  </metadata>
  <defs
     id="defs74" />
  <sodipodi:namedview
     pagecolor="#ffffff"
     bordercolor="#666666"
     borderopacity="1"
     objecttolerance="10"
     gridtolerance="10"
     guidetolerance="10"
     inkscape:pageopacity="0"
     inkscape:pageshadow="2"
     inkscape:window-width="1920"
     inkscape:window-height="990"
     id="namedview72"
     showgrid="false"
     inkscape:zoom="0.23186646"
     inkscape:cx="-173.22241"
     inkscape:cy="1245.754"
     inkscape:window-x="-11"
     inkscape:window-y="-11"
     inkscape:window-maximized="1"
     inkscape:current-layer="g78" />
  <g
     inkscape:groupmode="layer"
     inkscape:label="Image"
     id="g78">
    <rect
       style="fill:#ffffff;fill-opacity:1;stroke-width:1.693;stroke-miterlimit:4;stroke-dasharray:none"
       id="rect942"
       width="1854.5157"
       height="1746.6951"
       x="8.6256542"
       y="4.3128271"
       inkscape:export-xdpi="96"
       inkscape:export-ydpi="96" />
    <path
       style="fill:#f77263;fill-opacity:1;stroke-width:1.69312"
       d="m 1003.8177,1521.4778 c -1.3968,-0.7812 -6.73019,-1.9465 -11.85189,-2.5894 -5.1216,-0.643 -10.9956,-2.2637 -13.0532,-3.6017 -6.6483,-4.323 -16.9626,-16.1 -19.6854,-22.4769 -9.6882,-22.6903 -12.5444,-32.4652 -13.688,-46.8457 -0.6665,-8.3809 -1.5901,-18.2857 -2.0524,-22.0105 -1.7228,-13.8809 -0.8922,-56.4364 1.177,-60.3028 1.1223,-2.097 2.361,-11.863 2.7527,-21.7021 0.3917,-9.8391 1.4284,-20.556 2.3039,-23.8152 0.8754,-3.2593 1.5959,-12.924 1.6011,-21.4771 0.01,-8.5532 0.8212,-17.6862 1.8133,-20.2957 0.9921,-2.6095 2.2466,-11.018 2.7877,-18.6855 1.2764,-18.0865 0,-19.8842 -13.0328,-18.4093 -12.5697,1.4221 -17.2429,-1.4641 -13.5483,-8.3676 3.3759,-6.3079 13.1996,-12.659 19.5805,-12.659 7.8795,0 11.6038,-5.1567 12.0325,-16.6604 0.1964,-5.2707 0.8656,-12.0662 1.4872,-15.1012 0.6981,-3.4087 0.3523,-6.4552 -0.9045,-7.9696 -1.6052,-1.9342 -1.4676,-3.2607 0.6522,-6.2871 2.0475,-2.9232 2.6866,-8.1503 2.6866,-21.9731 0,-9.9756 0.85,-20.2822 1.889,-22.9037 1.0389,-2.6215 2.1356,-9.3377 2.437,-14.925 0.3015,-5.5873 1.3518,-14.7302 2.334,-20.3175 0.9823,-5.5873 1.7904,-16.7758 1.7958,-24.8633 0.01,-8.0876 0.7453,-16.6391 1.6442,-19.0035 0.899,-2.3644 1.9448,-8.3188 2.3242,-13.2319 0.9298,-12.0424 4.3574,-23.3574 8.476,-27.9806 4.5739,-5.1343 17.87199,-5.2609 27.37879,-0.2606 13.2163,6.9513 24.3071,15.5404 26.3099,20.3757 2.2855,5.5178 0.8409,24.5519 -2.1357,28.1384 -0.9812,1.1823 -2.0633,9.9519 -2.4046,19.4878 -2.9351,82.0081 -3.2476,87.183 -5.4237,89.8013 -1.4067,1.6925 -2.4894,8.7344 -2.8814,18.741 -0.7816,19.953 -0.2497,20.5799 16.0958,18.9692 11.7056,-1.1534 11.7903,-1.1318 12.9008,3.2927 1.354,5.3949 0.8243,5.9429 -12.0099,12.4249 -5.5873,2.8219 -13.0435,7.7788 -16.5693,11.0155 -6.4106,5.8848 -6.4106,5.8848 -5.2761,16.9579 0.8772,8.5626 0.5038,12.4021 -1.6471,16.9348 -4.5332,9.5531 -5.0094,15.4078 -1.9921,24.4921 2.635,7.9333 2.6314,9.292 -0.055,20.8827 -2.0454,8.826 -3.0706,22.6168 -3.5588,47.8723 -0.3771,19.5111 -1.3079,36.2731 -2.0683,37.2486 -2.9825,3.8263 -3.4519,11.2433 -1.1515,18.1931 1.5465,4.6721 2.4173,14.6268 2.4282,27.7589 0.017,19.4195 3.087,36.3463 7.0368,38.7874 0.7099,0.4388 3.2148,-0.7156 5.5664,-2.5654 7.992,-6.2865 8.8106,-4.9659 10.3184,16.6463 0.8198,11.7504 -1.009,20.6255 -4.2501,20.6255 -0.7493,0 -3.9657,2.2857 -7.1475,5.0793 -5.9257,5.2028 -15.6054,6.8096 -21.4227,3.556 z m -35.55559,-64.7248 c 0,-1.2699 2.2022,-1.5573 6.5748,-0.8581 9.2759,1.4833 11.9234,-1.9112 7.3868,-9.4711 -3.4355,-5.7251 -3.7822,-5.8592 -10.152,-3.9268 -5.8434,1.7727 -4.5379,-1.6946 2.1164,-5.6207 7.4035,-4.3682 7.8742,-8.6899 0.9465,-8.6899 -2.7387,0 -5.4124,-0.7005 -5.9415,-1.5567 -1.0255,-1.6592 2.751,-6.161 6.1069,-7.2796 1.2772,-0.4257 2.2039,-5.6126 2.5225,-14.1194 0.6394,-17.0731 1.4673,-23.1344 3.7402,-27.3812 1.0001,-1.8688 1.3557,-3.8605 0.7901,-4.4261 -0.5655,-0.5655 -0.043,-2.2155 1.1614,-3.6665 1.792,-2.1593 1.785,-3.3943 -0.039,-6.802 -1.8768,-3.5069 -1.7825,-6.0105 0.5977,-15.872 1.5543,-6.4396 2.387,-12.8522 1.8506,-14.2502 -0.5365,-1.398 0.3774,-5.0867 2.0308,-8.1972 2.9477,-5.5455 3.0719,-6.8434 1.3917,-14.5444 -0.9803,-4.4932 -5.1795,-4.9375 -9.5222,-1.0074 -2.905,2.629 -3.0963,2.5853 -3.0963,-0.7081 0,-6.1047 1.9373,-8.9231 7.8244,-11.3828 4.5376,-1.896 5.733,-3.3709 5.7806,-7.1327 0.033,-2.6084 1.1488,-6.6473 2.4797,-8.9753 3.1784,-5.5602 3.1784,-11.713 0,-12.9327 -3.6059,-1.3837 -3.1446,-5.6761 1.095,-10.189 3.0016,-3.195 3.2617,-4.3185 1.4933,-6.4493 -1.1778,-1.4192 -1.7025,-4.259 -1.1659,-6.3107 1.385,-5.2965 -1.7103,-8.1431 -8.8255,-8.1164 -14.27,0.054 -17.1415,3.6762 -17.157,21.6439 -0.01,6.2419 -0.9051,15.9203 -1.9992,21.5076 -1.0942,5.5873 -2.1456,15.873 -2.3366,22.8572 -0.1909,6.9841 -1.3865,18.0317 -2.6569,24.5502 -1.6614,8.5251 -2.2833,26.5848 -2.2156,64.3387 0.083,46.3285 0.5725,55.7176 3.3763,64.7619 0.8171,2.6355 5.8418,2.8134 5.8418,0.2068 z m 16.9313,-251.2121 c 2.187,-2.3281 5.6931,-4.2328 7.7912,-4.2328 3.5271,0 10.83309,-7.0052 10.83309,-10.3871 0,-2.6546 -7.08179,-8.6065 -8.49159,-7.1367 -0.7592,0.7915 -1.6354,3.3361 -1.947,5.6546 -0.6725,5.0025 -6.4638,6.9999 -6.5465,2.2579 -0.03,-1.6979 -1.1724,-4.5661 -2.5396,-6.3737 -3.8392,-5.0759 -3.005,-8.6471 3.44,-14.7262 6.3918,-6.0289 7.7257,-10.3983 2.963,-9.7057 -1.6296,0.237 -4.7138,-0.159 -6.8537,-0.88 -6.6268,-2.2328 -8.3209,1.1374 -9.5028,18.9042 -0.6025,9.0567 -1.3075,18.7525 -1.5667,21.5461 -0.2592,2.7937 -0.1558,6.0317 0.2298,7.1958 1.1751,3.5469 7.9802,2.3655 12.1908,-2.1164 z m 4.5531,-57.7905 c 0.5834,-1.5201 0.1321,-4.2509 -1.003,-6.0682 -1.2043,-1.9285 -1.6057,-5.3887 -0.9641,-8.3102 1.4711,-6.6976 -3.2926,-14.5671 -6.9703,-11.5149 -1.3695,1.1365 -2.0298,3.4155 -1.4861,5.1287 0.5382,1.6958 0.1107,4.705 -0.9501,6.687 -3.0827,5.7601 2.6919,16.545 8.99,16.7901 0.7276,0.028 1.8003,-1.1923 2.3836,-2.7125 z m 0.1131,-42.3896 c -0.5268,-11.6659 -3.3047,-13.271 -7.7549,-4.481 -4.1162,8.1304 -2.4722,14.0791 3.8908,14.0791 4.1469,0 4.2824,-0.3365 3.8641,-9.5981 z m -365.70493,399.8354 c -11.13286,-7.565 -15.45047,-19.4652 -17.49749,-48.2268 -1.76386,-24.783 -1.60514,-29.9386 1.72018,-55.873 1.6119,-12.5714 3.14628,-25.5785 3.40973,-28.9046 0.26345,-3.3262 1.33287,-12.469 2.3765,-20.3175 1.04362,-7.8485 2.75014,-21.508 3.79227,-30.3546 1.04212,-8.8466 2.47333,-20.2751 3.18046,-25.3968 0.70713,-5.1217 2.16251,-17.3122 3.23415,-27.09 1.07165,-9.7777 2.68641,-22.3492 3.58835,-27.9365 0.90195,-5.5873 2.06923,-15.1111 2.59397,-21.164 3.05745,-35.2684 4.42646,-46.9717 5.90144,-50.45 0.90706,-2.1391 1.67521,-6.3296 1.70701,-9.3122 0.0318,-2.9826 1.60257,-11.5182 3.4906,-18.968 5.32125,-20.9964 10.71547,-60.1058 8.29017,-60.1058 -0.70972,0 -2.64083,2.0953 -4.29134,4.6561 -1.65052,2.5609 -4.02385,5.2654 -5.27409,6.0101 -1.25025,0.7447 -2.27317,3.5341 -2.27317,6.1987 0,3.4506 -1.5834,6.0882 -5.50264,9.1662 -9.92032,7.7909 -11.42857,9.484 -11.42857,12.8299 0,3.0716 0.3145,3.0139 4.44581,-0.8149 4.57621,-4.2411 7.96711,-4.2296 6.33582,0.022 -0.5073,1.322 -3.51103,3.258 -6.67497,4.3022 -7.19084,2.3731 -8.03934,3.7686 -8.49793,13.9757 -0.24992,5.5626 -1.32937,8.9354 -3.32737,10.3963 -3.20638,2.3446 -2.0457,6.0625 1.89264,6.0625 4.9438,0 0.61514,12.2782 -7.23959,20.5351 -5.21256,5.4794 -5.60704,6.5235 -3.64923,9.6584 2.62446,4.2024 2.80169,3.9981 -7.83545,9.0333 -7.96933,3.7723 -8.46859,4.3879 -8.51657,10.5005 -0.0339,4.3144 -1.09939,7.2598 -3.17533,8.7778 -3.14802,2.3019 -2.70828,7.5267 0.63348,7.5267 3.60743,0 1.50815,4.4957 -5.72702,12.2646 -7.06763,7.5891 -7.53818,8.7174 -8.66915,20.7865 -0.92917,9.9157 -1.89704,13.1371 -4.33978,14.4444 -5.54238,2.9662 -7.23164,8.1293 -4.93575,15.0859 1.90244,5.7645 1.61109,7.1503 -3.98075,18.9339 -6.37389,13.4318 -12.14178,20.3953 -20.45347,24.6934 -3.9789,2.0576 -8.31099,2.3906 -20.35264,1.5643 -8.41382,-0.5773 -18.21171,-1.8758 -21.77313,-2.8855 -7.15156,-2.0277 -15.59995,-10.2834 -17.23835,-16.8452 -0.58126,-2.3281 -3.3231,-9.0604 -6.09295,-14.9608 -5.5106,-11.7389 -12.83803,-32.7977 -15.1191,-43.4519 -3.77214,-17.6186 -4.64103,-20.6839 -7.31884,-25.8201 -1.57789,-3.0265 -3.55987,-5.5027 -4.40442,-5.5027 -3.05695,0 -3.72426,6.9588 -1.05759,11.0287 2.91296,4.4457 3.75744,21.9681 1.13681,23.5877 -0.90904,0.5618 -0.79612,2.9333 0.27473,5.7703 1.50337,3.9829 1.15279,6.1908 -2.02555,12.7563 -2.75935,5.7001 -3.53519,9.4737 -2.75033,13.3773 0.6013,2.9906 1.88949,9.2469 2.86267,13.903 0.97317,4.6561 2.15598,17.1689 2.62848,27.8062 0.47249,10.6373 1.77202,20.923 2.88783,22.8571 1.30422,2.2607 1.8085,8.8547 1.41206,18.4641 -0.61669,14.9476 -0.61669,14.9476 -6.41446,18.3683 -7.12835,4.2059 -7.29251,6.2025 -0.71418,8.6855 2.79599,1.0554 5.43381,3.0845 5.86181,4.5091 1.3695,4.5581 1.48858,23.1356 0.16203,25.282 -0.7125,1.1528 -0.0897,3.3875 1.40397,5.038 3.31031,3.6579 2.7136,14.0571 -1.24591,21.714 -1.53995,2.978 -2.7999,6.5469 -2.7999,7.9309 0,1.6016 -2.00066,2.7094 -5.50265,3.0471 -8.06935,0.778 -7.35224,5.4574 0.94109,6.141 3.64079,0.3001 6.85027,1.5906 7.37835,2.9668 2.65504,6.9187 -6.37436,19.3592 -14.05113,19.3592 -2.18206,0 -7.76036,-1.4412 -12.39619,-3.2027 -7.14799,-2.716 -8.72594,-2.8447 -10.3842,-0.8466 -2.42115,2.9173 -5.10727,2.99 -8.86351,0.2397 -3.97247,-2.9085 -5.85456,-16.6774 -7.10112,-51.9501 -0.57374,-16.234 -2.06754,-33.7578 -3.31961,-38.9418 -1.25206,-5.184 -2.75425,-19.7112 -3.33821,-32.2827 -0.58395,-12.5714 -1.94033,-28.1904 -3.01419,-34.7089 -3.28573,-19.9451 -4.42401,-165.0204 -1.37485,-175.227 0.97183,-3.2531 1.78231,-13.9197 1.80104,-23.7037 0.0188,-9.7839 0.81099,-22.7413 1.76058,-28.7942 0.9496,-6.0529 2.32044,-14.8148 3.04633,-19.4709 1.80109,-11.5528 5.06497,-17.1394 16.12478,-27.5993 9.44083,-8.9288 9.44083,-8.9288 18.36453,-7.7924 4.90804,0.625 10.20695,1.7962 11.77536,2.6026 1.5684,0.8065 5.59876,1.4663 8.95634,1.4663 3.35758,0 9.14166,1.5493 12.8535,3.443 5.51028,2.8111 7.71602,5.5299 12.01895,14.8149 2.89856,6.2544 5.92647,12.6948 6.72868,14.3118 0.80224,1.617 1.4586,7.3834 1.4586,12.8143 0,5.431 1.20113,13.9191 2.6692,18.8626 1.46806,4.9435 2.25742,10.6289 1.75413,12.6341 -0.53459,2.13 0.46291,5.7365 2.399,8.6737 1.82274,2.7652 3.31911,6.731 3.32524,8.8129 0.0152,4.9173 3.33611,19.0253 5.4371,23.0932 0.90184,1.746 2.06255,8.7658 2.57937,15.5993 0.66897,8.8452 1.85385,13.406 4.11283,15.8307 1.75301,1.8816 3.58436,7.0243 4.09196,11.4906 1.38285,12.1676 4.28249,22.4841 8.64863,30.7706 2.15839,4.0963 3.93581,8.6678 3.94983,10.1587 0.0362,3.8481 4.147,15.1796 6.28099,17.3136 2.12677,2.1267 8.93161,-0.8804 8.93161,-3.947 0,-1.058 0.99122,-3.1264 2.20273,-4.5966 1.2115,-1.4701 3.15939,-6.4642 4.32862,-11.0979 1.16926,-4.6337 2.73839,-8.8241 3.48695,-9.3121 2.28512,-1.4897 6.91292,-11.5233 6.91292,-14.988 0,-5.0354 4.82372,-15.5256 11.31647,-24.6101 4.24736,-5.9427 5.60829,-9.3384 4.8899,-12.2007 -0.72792,-2.9002 0.3777,-5.5301 4.11386,-9.7854 2.94387,-3.3528 4.69684,-6.8941 4.13608,-8.3554 -0.5622,-1.465 1.21864,-5.0327 4.21643,-8.447 2.85434,-3.2509 5.18969,-6.3477 5.18969,-6.8818 0,-0.5341 1.90476,-3.778 4.23281,-7.2086 3.21214,-4.7333 4.2328,-8.4247 4.2328,-15.3084 0,-7.856 0.7499,-9.9221 5.59851,-15.4251 10.97935,-12.4611 16.6936,-22.8496 15.65161,-28.4545 -0.81583,-4.3884 0.94913,-8.0478 11.68413,-24.2257 14.97549,-22.5684 20.4373,-29.3437 25.27715,-31.356 6.12895,-2.5482 29.84964,-3.1349 35.57434,-0.8797 11.69901,4.6086 19.13889,14.5759 22.35562,29.9502 3.06933,14.6699 3.01486,23.6656 -0.16254,26.843 -1.54137,1.5413 -2.53968,5.6867 -2.53968,10.5457 0,4.4033 -0.77213,8.7782 -1.71586,9.7219 -0.94373,0.9437 -1.78812,8.1437 -1.87644,16 -0.10294,9.1503 -1.13028,16.4139 -2.85865,20.21 -1.82423,4.0067 -2.84434,11.958 -3.14966,24.5503 -0.65473,27.0036 -2.11405,43.5036 -4.21813,47.6929 -1.01426,2.0195 -1.35488,6.21 -0.75691,9.3122 0.59796,3.1022 1.10822,6.4023 1.1339,7.3335 0.11175,4.0553 -3.46311,17.3566 -5.91563,22.0106 -1.86153,3.5325 -2.3567,7.2711 -1.62597,12.2762 0.74269,5.0871 0.19923,8.9912 -1.85383,13.3177 -1.77646,3.7436 -2.5235,8.026 -1.92344,11.0263 0.59215,2.9608 -0.12648,7.2281 -1.81289,10.7645 -2.26477,4.7492 -2.41793,6.6843 -0.80864,10.2163 2.54048,5.5757 2.54658,13.1182 0.0119,15.6521 -1.29696,1.297 -2.02192,10.0232 -2.1164,25.4751 -0.0941,15.3894 -0.83433,24.3345 -2.1444,25.9132 -1.7982,2.1669 -4.02845,17.3359 -4.60206,31.301 -0.11869,2.89 -1.71669,8.0415 -3.55109,11.4477 -2.76153,5.1279 -2.976,6.7684 -1.24678,9.5373 2.91713,4.6711 2.68682,5.7162 -2.37523,10.7783 -4.87661,4.8765 -12.52766,5.9317 -15.65843,2.1593 -2.5515,-3.0743 1.59922,-13.157 6.85215,-16.6449 3.72648,-2.4742 3.75231,-2.6773 0.89551,-7.0374 -1.61715,-2.4692 -3.93339,-4.4896 -5.14643,-4.4896 -3.34407,0 -10.18012,7.8877 -8.00249,9.2335 1.00126,0.6188 1.82046,2.3634 1.82046,3.8769 0,3.2986 -6.42358,16.9504 -8.6121,18.3029 -3.60694,2.2292 -1.03114,5.271 6.07242,7.1709 7.76679,2.0773 9.63429,4.3014 5.07936,6.0493 -3.15469,1.2106 -3.37666,7.8533 -0.26241,7.8533 1.2525,0 3.6726,-1.5418 5.37798,-3.4262 5.99771,-6.6274 6.45589,-0.6497 0.76815,10.0216 -4.66726,8.7567 -5.15108,10.6982 -3.23987,13.001 1.60257,1.931 3.97274,2.4477 8.26704,1.8023 13.27756,-1.9957 14.48594,-1.9527 14.48594,0.5152 0,1.3437 -4.19048,5.6852 -9.31217,9.6477 -9.00062,6.9637 -9.71737,7.2024 -21.42342,7.1367 -9.82472,-0.055 -13.20832,-0.8134 -17.92215,-4.0165 z m 9.82765,-25.2119 c 1.19071,-4.7442 -1.96646,-11.6696 -4.88242,-10.71 -2.77524,0.9133 -3.43649,7.1362 -1.20196,11.3115 2.47412,4.6229 4.83163,4.3899 6.08438,-0.6015 z m 2.42797,-14.5493 c 0,-0.9312 -0.7619,-1.6931 -1.69312,-1.6931 -0.93122,0 -1.69312,0.7619 -1.69312,1.6931 0,0.9313 0.7619,1.6932 1.69312,1.6932 0.93122,0 1.69312,-0.7619 1.69312,-1.6932 z m -209.18551,-22.5929 c -1.45899,-5.8131 -2.9562,-5.6871 -5.27019,0.4433 -1.34505,3.5635 -1.35076,5.4543 -0.0205,6.7846 3.02126,3.0212 6.62676,-1.9044 5.29067,-7.2279 z m 207.83466,-10.7379 c -0.27737,-1.9898 0.29406,-4.1113 1.26984,-4.7143 3.1168,-1.9263 1.90759,-7.3184 -2.40126,-10.7077 -2.29646,-1.8064 -3.75222,-3.7075 -3.23503,-4.2247 1.29037,-1.2904 12.88139,0.6041 15.30201,2.5011 2.18091,1.709 4.75717,-1.0443 3.25356,-3.4772 -0.49861,-0.8067 0.59928,-2.8296 2.43975,-4.4952 4.84416,-4.3839 4.37662,-9.276 -0.88648,-9.276 -2.5567,0 -4.23281,-0.9661 -4.23281,-2.4398 0,-3.3477 -2.75564,-4.7611 -6.78764,-3.4813 -2.08856,0.6629 -3.37109,2.5628 -3.37109,4.9939 0,3.981 -6.18709,9.3928 -10.7384,9.3928 -6.91022,0 -7.77536,12.2771 -1.01631,14.4224 4.23695,1.3447 3.53518,4.4563 -1.51975,6.7384 -4.64025,2.095 -4.0338,6.7757 0.87788,6.7757 1.99376,0 4.22812,0.5978 4.96527,1.3284 2.58106,2.5581 6.5951,0.3555 6.08046,-3.3365 z M 425.89461,1418.988 c -0.56003,-1.4594 -1.80406,-2.6535 -2.76451,-2.6535 -1.94794,0 -2.39293,5.5615 -0.58929,7.3651 1.85872,1.8587 4.46826,-1.8073 3.3538,-4.7116 z m -1.62144,-11.5424 c 5.50588,-11.8608 7.42524,-21.5873 4.2599,-21.5873 -3.51975,0 -8.90907,5.5881 -8.03755,8.334 0.53158,1.6749 -0.85026,5.6073 -3.17336,9.0306 -2.26322,3.335 -3.67205,6.5066 -3.1307,7.048 2.40329,2.4033 8.43986,0.7116 10.08171,-2.8253 z m 203.41029,-7.3193 c 5.48208,-3.2488 13.80621,-14.5282 13.80621,-18.7077 0,-1.6787 -2.05286,-4.689 -4.5619,-6.6896 -4.56189,-3.6376 -4.56189,-3.6376 1.69326,-6.6058 3.77796,-1.7928 7.71957,-5.5739 9.95302,-9.5478 2.03384,-3.6187 4.70046,-6.5795 5.9258,-6.5795 1.22535,0 2.22791,-1.0958 2.22791,-2.4352 0,-1.605 -1.58716,-2.3265 -4.65608,-2.1164 -4.15128,0.2842 -4.61791,-0.2125 -4.3039,-4.5814 0.19369,-2.6952 -0.40454,-6.3142 -1.32942,-8.0424 -2.37579,-4.4392 0.78708,-9.5658 6.30845,-10.2253 2.46729,-0.2947 5.3228,-2.0596 6.34562,-3.9221 1.0228,-1.8624 3.57584,-5.8116 5.67341,-8.7759 2.09758,-2.9643 3.81378,-6.1209 3.81378,-7.0146 0,-2.6151 -5.0901,-3.8318 -11.21983,-2.6818 -3.12725,0.5866 -6.94862,0.5821 -8.49195,-0.01 -2.47384,-0.9493 -2.33881,-1.5741 1.14053,-5.2777 3.78054,-4.0242 3.81605,-4.2965 0.8437,-6.4699 -2.15172,-1.5734 -2.50526,-2.6383 -1.15328,-3.4738 1.07228,-0.6627 1.94961,-2.6838 1.94961,-4.4913 0,-2.5736 1.19343,-3.2919 5.50264,-3.3122 6.74679,-0.032 9.21812,-1.4914 9.98951,-5.9 0.48555,-2.775 -0.22495,-3.3019 -3.93638,-2.9188 -5.94688,0.6137 -7.27106,-1.9114 -4.21489,-8.0376 2.06155,-4.1325 2.10249,-5.3073 0.23887,-6.854 -1.23705,-1.0267 -3.28059,-1.6298 -4.54121,-1.3403 -1.26063,0.2895 -2.46002,-0.045 -2.66529,-0.7435 -1.08287,-3.6841 0.23219,-4.6561 6.29931,-4.6561 8.16826,0 10.40707,-2.7699 4.1589,-5.1454 -3.37487,-1.2832 -4.10735,-2.2559 -2.73328,-3.63 1.03242,-1.0324 1.44258,-4.0499 0.91148,-6.7054 -0.53112,-2.6555 -0.2161,-5.7825 0.70002,-6.9488 0.91613,-1.1664 2.13479,-4.5968 2.70816,-7.6233 1.11142,-5.8666 -0.20248,-6.7224 -5.75666,-3.7499 -2.71152,1.4511 -3.27494,1.191 -3.27494,-1.512 0,-1.7956 1.14286,-3.7032 2.53968,-4.2393 1.39683,-0.536 2.53969,-2.1576 2.53969,-3.6037 0,-1.446 1.99248,-5.6399 4.42775,-9.3198 4.36021,-6.5888 4.71194,-15.2472 0.61936,-15.2472 -2.81099,0 -1.83785,-4.1543 1.45483,-6.2107 2.23231,-1.3941 2.90624,-3.3729 2.37694,-6.9792 -0.40632,-2.7684 0.0963,-5.5496 1.1171,-6.1805 2.69488,-1.6654 2.27388,-4.3333 -0.68381,-4.3333 -1.39683,0 -2.53969,0.673 -2.53969,1.4957 0,0.8226 -1.52381,1.8941 -3.38624,2.3811 -1.86243,0.4871 -3.38624,0.5907 -3.38624,0.2304 0,-1.5709 11.76362,-18.8574 14.21973,-20.8958 3.36125,-2.7896 3.4626,-5.8771 0.27965,-8.5187 -1.95577,-1.6232 -3.44726,-1.0478 -7.61904,2.9389 -2.85296,2.7265 -5.19007,6.0176 -5.19355,7.3136 -0.003,1.296 -1.68542,5.0231 -3.73765,8.2823 -6.00154,9.5314 -8.16368,16.8878 -5.98761,20.3722 1.44274,2.3103 1.21984,3.9963 -0.97016,7.3387 -1.56377,2.3866 -2.84322,6.3209 -2.84322,8.743 0,2.422 -0.81243,5.9217 -1.8054,7.7771 -2.4588,4.5943 -3.46028,25.4621 -1.34432,28.0117 1.2167,1.466 0.45405,3.1488 -2.65039,5.848 -5.23668,4.5533 -5.51442,7.508 -0.97238,10.3446 4.60561,2.8762 4.25647,5.794 -0.84656,7.0748 -5.06233,1.2706 -5.6161,6.0325 -0.84656,7.2798 4.23573,1.1076 4.23573,3.5411 0,8.9561 -3.60554,4.6095 -4.35304,10.2079 -1.71514,12.8458 1.0994,1.0994 0.23054,3.7911 -2.53968,7.8678 -2.50665,3.6889 -4.21079,8.5991 -4.21079,12.1328 0,3.2649 -0.94343,8.0067 -2.09649,10.5374 -1.66658,3.6577 -1.66658,4.7446 0,5.3001 2.57737,0.8592 2.78071,8.2596 0.26959,9.8115 -1.14915,0.7102 -1.424,4.0583 -0.74087,9.0252 0.81396,5.9183 0.25854,9.8265 -2.21745,15.6028 -2.41153,5.6258 -2.84524,8.5254 -1.60635,10.7391 0.94979,1.6972 1.2138,6.676 0.59953,11.3065 -0.63067,4.7542 -0.34781,9.6749 0.66491,11.5672 1.39274,2.6024 0.87225,4.6051 -2.48112,9.5466 -4.36547,6.4329 -5.67543,14.2463 -2.38843,14.2463 1.02034,0 3.87748,-1.1984 6.3492,-2.6632 z m 30.31415,-29.1379 c 6.35464,-5.4316 6.86118,-7.1407 2.1164,-7.1407 -1.86244,0 -3.38625,0.7619 -3.38625,1.6932 0,0.9312 -1.92866,1.6931 -4.28593,1.6931 -4.87494,0 -7.57076,4.6584 -4.00312,6.9174 3.32579,2.1059 3.43787,2.0688 9.5589,-3.163 z m -241.69313,-0.3682 c 0,-0.9312 -0.7619,-1.6931 -1.69312,-1.6931 -0.93122,0 -1.69312,0.7619 -1.69312,1.6931 0,0.9312 0.7619,1.6932 1.69312,1.6932 0.93122,0 1.69312,-0.762 1.69312,-1.6932 z m 5.07937,-9.2122 c 0,-0.4107 -0.76191,-1.2175 -1.69313,-1.7931 -0.93121,-0.5755 -1.69312,-0.2395 -1.69312,0.7467 0,0.9861 0.76191,1.793 1.69312,1.793 0.93122,0 1.69313,-0.336 1.69313,-0.7466 z m 241.26984,-4.3327 c 0,-1.2417 -0.95238,-2.575 -2.1164,-2.963 -1.25899,-0.4197 -2.1164,0.7807 -2.1164,2.963 0,2.1822 0.85741,3.3826 2.1164,2.9629 1.16402,-0.388 2.1164,-1.7213 2.1164,-2.9629 z m -246.34921,-3.3863 c 0,-0.9312 -0.80687,-1.6931 -1.79305,-1.6931 -0.98618,0 -1.32216,0.7619 -0.74663,1.6931 0.57552,0.9312 1.3824,1.6931 1.79305,1.6931 0.41065,0 0.74663,-0.7619 0.74663,-1.6931 z m 10.15873,-9.4194 c 0,-1.9559 -1.40265,-2.5085 -5.37226,-2.1164 -7.76184,0.7665 -8.3448,4.7633 -0.69475,4.7633 4.37343,0 6.06701,-0.7388 6.06701,-2.6469 z m -10.22623,-25.2082 c 2.30701,-2.7798 1.81032,-7.968 -0.84753,-8.8528 -3.57338,-1.1895 -8.01449,3.7959 -6.79741,7.6306 1.34634,4.242 4.6945,4.7772 7.64494,1.2222 z m -4.41253,-40.6355 c 5.33101,-4.9406 5.84948,-9.393 1.09379,-9.393 -3.98861,0 -4.46028,-3.7733 -0.84656,-6.7725 1.39682,-1.1592 2.53968,-2.9305 2.53968,-3.9362 0,-1.0057 2.40657,-4.3114 5.34793,-7.3461 5.34792,-5.5177 5.34792,-5.5177 1.26984,-8.9132 -2.24295,-1.8675 -5.84027,-3.4208 -7.99404,-3.4518 -3.10163,-0.045 -3.8058,0.7358 -3.38625,3.7532 0.39354,2.8302 -0.41798,3.9444 -3.15686,4.3344 -5.78219,0.8233 -7.79807,4.7023 -7.43788,14.3121 0.31888,8.5081 1.01753,17.6166 1.55669,20.2953 0.54348,2.7 6.74006,1.0785 11.01366,-2.8822 z m 1.97084,-51.9739 c 0.0169,-1.3174 1.09865,-5.6319 2.40418,-9.5877 1.81235,-5.4915 1.90524,-7.6608 0.39279,-9.1732 -1.08949,-1.0895 -1.9809,-3.7333 -1.9809,-5.8751 0,-5.4328 -3.1745,-4.85 -10.5672,1.9399 -4.08914,3.7558 -5.97538,6.7536 -5.32151,8.4576 1.37842,3.5921 4.59284,3.3161 8.23353,-0.7068 1.66561,-1.8405 3.73159,-2.9117 4.59107,-2.3805 0.85946,0.5312 -1.14713,3.5975 -4.45909,6.8141 -6.74142,6.5471 -7.21192,8.3363 -3.32248,12.6341 3.07989,3.4032 9.97785,1.9435 10.02961,-2.1224 z m 163.04493,1.0468 c -0.29465,-2.357 -1.29764,-4.2854 -2.22886,-4.2854 -0.93122,0 -1.9342,1.9284 -2.22886,4.2854 -0.38183,3.0542 0.25852,4.2855 2.22886,4.2855 1.97034,0 2.61069,-1.2313 2.22886,-4.2855 z m 7.55923,-20.2648 c -0.46656,-2.1313 -8.94153,-3.3077 -8.94153,-1.2412 0,2.6176 2.26399,3.9432 5.85626,3.429 1.90074,-0.2721 3.28912,-1.2566 3.08527,-2.1878 z m -172.88437,-22.273 c 1.70296,-1.5412 3.09628,-4.2904 3.09628,-6.1095 0,-2.7549 -0.77777,-3.1174 -4.65609,-2.1705 -5.73724,1.4009 -11.39626,6.7017 -9.841,9.2182 1.70896,2.7651 7.8688,2.2582 11.40081,-0.9382 z m 189.33967,-20.0551 c 0,-0.4656 -0.38096,-0.8465 -0.84656,-0.8465 -0.46561,0 -0.84656,0.3809 -0.84656,0.8465 0,0.4657 0.38095,0.8466 0.84656,0.8466 0.4656,0 0.84656,-0.3809 0.84656,-0.8466 z m 505.39685,308.1265 c -6.5186,-2.308 -13.6831,-4.1997 -15.9213,-4.2037 -2.2382,0 -8.143,-1.9345 -13.1217,-4.2898 -9.0523,-4.2824 -9.0523,-4.2824 -9.0523,-26.9106 0,-12.4454 0.8241,-30.5184 1.8314,-40.162 1.0073,-9.6436 2.0654,-22.4863 2.3513,-28.5392 0.2859,-6.0529 1.6391,-20.1481 3.0071,-31.3227 1.368,-11.1746 2.1343,-24.5305 1.7029,-29.6796 -0.528,-6.3011 0.097,-11.4719 1.9115,-15.8146 2.0774,-4.9718 2.2641,-7.2594 0.8138,-9.9694 -1.2183,-2.2762 -1.4421,-7.15 -0.6347,-13.8151 0.6862,-5.6639 1.5248,-15.2504 1.8636,-21.3034 0.3387,-6.0529 0.9931,-14.4338 1.4541,-18.6243 0.4611,-4.1905 1.5689,-18.2857 2.4618,-31.3227 0.893,-13.0371 2.0556,-26.7514 2.5837,-30.4762 0.5282,-3.7249 1.432,-21.6297 2.0087,-39.7884 0.5766,-18.1587 1.3543,-36.8254 1.7282,-41.4815 0.374,-4.6561 1.3521,-32.0847 2.1736,-60.9524 0.8216,-28.86765 1.9387,-54.77241 2.4826,-57.56606 0.5438,-2.79365 1.3841,-9.95623 1.8674,-15.91687 1.1458,-14.13294 2.624,-15.91475 10.4797,-12.63243 7.7304,3.22995 10.3487,2.12175 11.0157,-4.66238 0.2958,-3.00814 1.4431,-5.7663 2.5496,-6.12924 3.2289,-1.05911 18.769,15.06471 19.9667,20.71658 0.5919,2.79365 2.1726,8.88889 3.5126,13.54498 1.34,4.65608 3.2526,16.08465 4.2503,25.39682 2.2682,21.1703 2.3825,127.7355 0.1448,135.1077 -0.9051,2.9818 -2.1071,13.3579 -2.6712,23.0582 -0.5641,9.7003 -1.8203,18.5943 -2.7916,19.7647 -0.9721,1.1713 -1.8069,10.3672 -1.8571,20.4583 -0.05,10.0819 -0.8226,21.2847 -1.7165,24.8952 -1.1101,4.4831 -1.0495,7.1405 0.1909,8.381 2.433,2.4329 2.2093,8.0996 -0.4581,11.6085 -1.7778,2.3385 -2.4539,23.029 -1.221,37.3613 0.06,0.6984 0.9309,1.2698 1.9351,1.2698 2.0923,0 15.1054,-13.1085 15.1054,-15.216 0,-0.7672 2.7762,-4.705 6.1693,-8.7508 3.3931,-4.0457 10.2612,-13.6851 15.2623,-21.4207 9.2893,-14.3683 15.2846,-18.9511 24.7927,-18.9511 2.2027,0 4.5681,-0.5631 5.2564,-1.2514 1.6656,-1.6657 16.7055,-2.2129 27.2494,-0.9915 6.7713,0.7844 9.567,2.1477 13.9683,6.8117 4.6546,4.9324 5.5026,7.1002 5.5026,14.0659 0,4.5291 0.8024,10.3453 1.7832,12.9247 3.8714,10.1828 6.1204,31.4516 6.6886,63.2554 0.1914,10.709 1.0443,22.2717 1.8955,25.6949 0.8512,3.4231 1.9737,12.5363 2.4943,20.2514 0.5207,7.7151 1.6493,15.3404 2.5082,16.9452 0.8588,1.6047 1.5493,4.682 1.5344,6.8385 -0.015,2.1564 1.2747,11.4296 2.8657,20.607 3.0111,17.3697 4.9489,20.3182 10.9076,16.5969 7.4295,-4.6398 11.069,-0.8442 6.9674,7.2661 -2.0743,4.1018 -2.1592,6.0065 -0.475,10.6641 2.4463,6.765 0.9918,9.1901 -8.0996,13.5043 -7.7151,3.661 -28.3272,3.5075 -35.6231,-0.2654 -2.822,-1.4593 -7.573,-2.6532 -10.5578,-2.6532 -6.5657,0 -15.6324,-6.5023 -19.5991,-14.0558 -2.694,-5.1299 -4.6514,-14.4984 -6.6147,-31.6585 -0.4794,-4.1905 -1.5789,-9.9048 -2.4432,-12.6984 -0.8644,-2.7937 -2.3976,-11.5556 -3.4072,-19.4709 -1.0096,-7.9154 -2.1106,-16.2963 -2.4467,-18.6244 -0.3361,-2.328 -1.0724,-9.5661 -1.6363,-16.0846 -0.5639,-6.5186 -1.4601,-14.8995 -1.9916,-18.6244 -0.5315,-3.7248 -1.2633,-12.8227 -1.6262,-20.2175 -0.363,-7.3948 -1.4431,-14.2282 -2.4002,-15.1853 -1.1916,-1.1916 -4.1208,-0.4399 -9.2908,2.3844 -9.2398,5.0474 -13.6,13.7439 -10.7386,21.4183 1.4995,4.0217 1.0618,6.488 -2.622,14.7738 -2.4321,5.4703 -4.422,10.9941 -4.422,12.2751 0,1.2809 -0.7619,2.329 -1.6931,2.329 -0.9312,0 -1.6931,1.5892 -1.6931,3.5316 0,4.482 -4.9258,24.495 -7.6737,31.1774 -1.1488,2.7936 -3.0091,9.2698 -4.1342,14.3915 -1.125,5.1217 -2.7183,11.9789 -3.5406,15.2381 -0.8223,3.2593 -1.8683,12.0212 -2.3245,19.4709 -0.7736,12.6352 -3.6391,26.3542 -6.3972,30.6276 -2.3597,3.6562 -5.2304,18.6221 -4.9115,25.6052 0.3593,7.8684 -3.9547,14.0318 -9.8216,14.0318 -1.7863,0 -4.2625,0.3679 -5.5027,0.8175 -1.2401,0.4496 -7.5881,-1.0709 -14.1066,-3.3789 z m -20.0353,-54.4404 c -0.6208,-0.6208 -1.1288,-0.1129 -1.1288,1.1288 0,1.2416 0.508,1.7495 1.1288,1.1287 0.6208,-0.6208 0.6208,-1.6367 0,-2.2575 z m 162.1473,-10.6812 c 3.5089,-1.3341 4.343,-2.7782 4.343,-7.5191 0,-3.2274 -0.8283,-6.3798 -1.8406,-7.0055 -1.0124,-0.6256 -1.493,-2.4672 -1.068,-4.0922 0.9429,-3.6058 -1.5956,-8.5288 -4.3713,-8.4774 -1.1178,0.021 -3.9011,1.4739 -6.1851,3.2292 -3.7609,2.8903 -3.953,3.6302 -2.0354,7.839 1.4069,3.0878 1.5512,5.2137 0.4301,6.3348 -1.1211,1.1211 -0.8496,3.3075 0.809,6.5149 2.752,5.3218 3.5788,5.5866 9.9183,3.1763 z m -157.3501,-23.7456 c 0.5755,-0.9312 -0.1864,-1.6931 -1.6932,-1.6931 -1.5067,0 -2.2686,0.7619 -1.6931,1.6931 0.5755,0.9312 1.3375,1.6931 1.6931,1.6931 0.3557,0 1.1176,-0.7619 1.6932,-1.6931 z m 153.7344,-12.9232 c 1.73,-1.73 -7.1415,-7.8095 -9.8689,-6.7629 -2.5774,0.9891 -3.3367,4.7299 -1.3611,6.7055 1.4341,1.4342 9.8105,1.477 11.23,0.057 z m -139.4567,-16.7064 c 1.3516,-2.7937 2.327,-8.3333 2.1673,-12.3103 -0.2123,-5.2909 0.6368,-8.1578 3.1651,-10.6861 3.9906,-3.9906 3.6191,-9.2823 -0.6274,-8.9378 -3.5767,0.2902 -3.8492,-3.7407 -0.3438,-5.0858 1.4049,-0.5391 3.432,-2.9064 4.5046,-5.2606 1.0727,-2.3541 3.3518,-4.2803 5.0648,-4.2803 1.8372,0 3.1145,-1.215 3.1147,-2.9629 3e-4,-2.5698 -1.6016,-2.9276 -12.0715,-2.6963 -9.6008,0.2121 -12.7681,0.963 -15.4736,3.6685 -4.5025,4.5025 -2.8277,9.2267 2.7727,7.8211 2.2469,-0.564 4.4375,-0.3922 4.8679,0.3816 1.529,2.7485 -2.2352,12.3622 -5.5309,14.126 -3.9124,2.0938 -4.5203,8.4451 -0.8083,8.4451 4.2238,0 2.9378,6.6637 -1.6931,8.7737 -4.9381,2.2499 -5.6505,8.191 -1.4821,12.3595 4.0021,4.0021 9.5404,2.5003 12.3736,-3.3554 z m 133.8704,-14.1529 c 0,-8.1599 -0.7987,-13.9531 -2.1164,-15.3498 -1.6931,-1.7947 -1.6931,-2.3986 0,-3.0194 3.2709,-1.1993 2.5002,-5.919 -1.8552,-11.3623 -3.9548,-4.9425 -3.9548,-4.9425 -4.9908,6.7725 -0.5699,6.4433 -1.5352,15.178 -2.1453,19.4105 -0.9749,6.7627 -0.5555,8.3536 3.4604,13.1262 2.5134,2.987 5.2622,5.0029 6.1085,4.4798 0.8464,-0.5231 1.5388,-6.8489 1.5388,-14.0575 z m -95.787,5.9704 c -1.2306,-3.2069 -3.3884,-3.6625 -4.9996,-1.0555 -1.4728,2.383 2.7078,7.2533 4.601,5.3601 0.815,-0.815 0.9944,-2.7521 0.3986,-4.3046 z m -39.6627,-53.5024 c 0,-1.7997 1.5441,-3.7622 3.4313,-4.3612 1.8873,-0.599 4.6035,-2.878 6.0361,-5.0644 2.3472,-3.5823 2.3428,-4.4821 -0.045,-9.0997 -3.0459,-5.8901 -3.4513,-16.5092 -0.8877,-23.252 3.0558,-8.0371 0.7597,-9.9349 -5.8866,-4.8655 -8.9422,6.8205 -14.4964,27.9044 -7.351,27.9044 1.0128,0 0.5776,1.3965 -0.967,3.1033 -4.01,4.431 -2.0853,18.9073 2.5138,18.9073 1.9907,0 3.1561,-1.2083 3.1561,-3.2722 z m 8.9359,-64.472 c 3.9907,-4.6608 3.6567,-7.0912 -0.8936,-6.5033 -2.0952,0.2707 -4.835,-0.1458 -6.0884,-0.9257 -3.3701,-2.097 -7.641,2.8664 -6.2466,7.2595 1.4882,4.689 9.2734,4.7887 13.2286,0.1695 z m 6.249,-17.2353 c 0.091,-1.999 -2.9064,-3.1203 -5.5891,-2.0909 -2.9675,1.1388 -4.9608,5.4049 -3.5739,7.649 0.9576,1.5494 9.0633,-3.3674 9.163,-5.5581 z m -13.4918,-3.9094 c 0,-1.3968 -0.7169,-2.5397 -1.5932,-2.5397 -2.135,0 -3.6641,2.644 -2.3114,3.9967 1.9068,1.9067 3.9046,1.1613 3.9046,-1.457 z m 12.3467,-15.2381 c -1.39,-20.0713 -0.8187,-32.6664 1.754,-38.6717 2.0952,-4.8906 2.3395,-7.3361 0.9856,-9.8659 -0.99,-1.8499 -1.7571,-9.9714 -1.7045,-18.0479 0.053,-8.0764 0.068,-16.9701 0.035,-19.7637 -0.033,-2.7937 0.4125,-10.0318 0.9899,-16.0847 0.8041,-8.4279 0.5976,-10.4105 -0.8816,-8.4656 -1.4577,1.9168 -2.1422,2.0206 -2.7903,0.4233 -0.4723,-1.164 -2.6394,-2.1164 -4.8157,-2.1164 -3.6073,0 -4.0546,0.9352 -5.0617,10.582 -0.8,7.6624 -0.4091,12.2255 1.417,16.5386 2.3054,5.4453 2.2482,6.5351 -0.6657,12.6984 -3.6628,7.7473 -4.5137,27.7104 -1.3174,30.9067 1.5179,1.5178 1.2478,3.3537 -1.1475,7.8017 -2.8752,5.3388 -2.9465,6.8027 -0.8684,17.8162 1.9845,10.5174 1.9444,12.3664 -0.3246,14.9708 -4.332,4.9722 -1.8693,7.4321 6.8745,6.8667 7.5966,-0.4913 7.8603,-0.6872 7.5209,-5.5885 z m -7.2078,-123.6696 c 1.54,-1.8556 1.6427,-3.136 0.3549,-4.424 -2.424,-2.424 -5.4938,-0.3291 -5.4938,3.7491 0,3.9541 2.1798,4.2404 5.1389,0.6749 z m -0.9061,-19.3992 c -0.8192,-1.3255 -1.7931,-1.4238 -2.9219,-0.2951 -0.9312,0.9312 -1.1402,2.5878 -0.4643,3.6813 0.8191,1.3254 1.7931,1.4238 2.9218,0.295 0.9313,-0.9312 1.1402,-2.5877 0.4644,-3.6812 z m 5.1798,-23.5413 c -1.4538,-2.3522 -5.4877,-2.4037 -6.9188,-0.088 -0.6007,0.972 -0.1396,2.915 1.0245,4.3178 1.8519,2.2314 2.4248,2.2425 4.5789,0.088 1.3542,-1.3542 1.9461,-3.2972 1.3154,-4.3178 z m -0.2697,-11.6141 c -0.093,-1.1513 -0.2836,-3.998 -0.4233,-6.326 -0.1397,-2.3281 -0.8489,-4.2328 -1.5759,-4.2328 -1.8405,0 -5.5555,10.3123 -4.3927,12.1937 1.3604,2.2012 6.5939,0.8626 6.3919,-1.6349 z m 232.1269,459.6997 c -16.7672,-3.9183 -19.3474,-4.9804 -24.9625,-10.2761 -11.4905,-10.837 -12.2407,-13.7074 -12.6897,-48.5539 -0.222,-17.2275 0.275,-32.8466 1.1044,-34.709 0.8294,-1.8624 3.1894,-8.1219 5.2443,-13.91 2.055,-5.788 7.0818,-16.3943 11.1707,-23.5694 4.0889,-7.1751 7.4548,-13.4871 7.4796,-14.0265 0.025,-0.5395 4.5963,-6.6352 10.1587,-13.5461 5.5625,-6.9108 10.1136,-14.0432 10.1136,-15.8496 0,-1.8065 -2.9068,-6.8188 -6.4596,-11.1386 -8.8613,-10.7742 -20.5771,-28.9057 -29.1434,-45.1027 -3.94,-7.4497 -8.826,-15.8306 -10.8577,-18.6243 -5.8863,-8.0938 -8.0823,-14.9071 -6.3115,-19.5829 0.8584,-2.2664 2.1095,-9.8351 2.7802,-16.8192 2.0622,-21.4706 14.8318,-41.7095 34.4953,-54.6725 7.1679,-4.7253 7.1679,-4.7253 33.7662,-3.9289 37.1663,1.113 69.7308,3.972 72.628,6.3764 3.8233,3.1731 7.3036,10.9418 7.3036,16.3033 0,3.0896 -2.0547,7.2582 -5.5978,11.357 -5.5978,6.4756 -5.5978,6.4756 -16.508,1.1046 -6.0005,-2.9541 -15.4816,-6.0882 -21.0689,-6.9648 -5.5873,-0.8765 -15.1989,-2.3895 -21.3592,-3.3622 -6.1603,-0.9726 -15.0613,-1.7685 -19.7801,-1.7685 -6.9749,0 -8.7726,0.6083 -9.6118,3.2525 -0.5678,1.7888 -1.1906,16.4555 -1.384,32.5926 -0.3516,29.3401 -0.3516,29.3401 9.5355,47.5449 5.4379,10.0127 13.0688,21.7191 16.9575,26.0142 7.0703,7.8094 7.0703,7.8094 13.5157,4.1892 3.545,-1.9911 8.4856,-5.0168 10.9791,-6.7239 21.3843,-14.6394 68.06,-35.7584 79.0309,-35.7584 3.3451,0 4.0203,-0.1898 30.9483,-8.6999 17.4032,-5.5 17.4032,-5.5 20.976,-1.9273 7.0738,7.0739 -0.899,13.4543 -22.7059,18.1711 -7.6892,1.6632 -18.1707,4.022 -23.2924,5.242 -5.1217,1.2199 -13.1217,3.081 -17.7778,4.1359 -13.3631,3.0275 -26.2434,7.3592 -26.2434,8.8257 0,0.7384 -0.9818,1.3425 -2.1817,1.3425 -6.1658,0 -41.8395,23.299 -41.8395,27.3259 0,1.6059 2.3561,4.5974 5.2358,6.6479 2.8796,2.0505 8.58,8.9456 12.6675,15.3224 4.0874,6.3769 8.6078,12.9416 10.0452,14.5882 12.0211,13.771 19.8375,25.4114 23.7164,35.3191 5.9484,15.1938 16.0772,36.2627 19.3041,40.1544 1.7453,2.1048 2.5051,6.7249 2.4313,14.7837 -0.1028,11.2275 -0.3883,12.0269 -6.768,18.9489 -3.6634,3.9748 -10.0282,12.0025 -14.144,17.8392 -6.1323,8.6964 -8.7182,10.9446 -14.3244,12.4536 -4.2546,1.1451 -9.1433,4.3344 -12.9302,8.4353 -4.9581,5.3693 -7.2483,6.5941 -12.3295,6.5941 -3.4323,0 -9.0731,1.257 -12.5353,2.7933 -7.317,3.2469 -47.4132,4.5135 -58.7816,1.8568 z m 32.1694,-25.9024 c 9.273,-2.2633 20.4154,-11.4047 28.5568,-23.4284 3.9225,-5.7931 4.459,-8.2631 4.459,-20.5279 0,-15.5492 -1.2704,-19.9888 -12.3782,-43.2571 -12.4016,-25.9787 -31.6337,-54.074 -37.0151,-54.074 -4.3496,0 -18.3551,24.5243 -23.2062,40.6349 -5.1039,16.9502 -7.2349,33.4965 -6.425,49.8877 1.3348,27.0151 1.9257,29.5148 8.5784,36.291 3.2919,3.3531 7.8259,8.3822 10.0755,11.1758 3.6972,4.5914 4.9637,5.0534 13.1828,4.8085 5.0009,-0.149 11.3783,-0.8287 14.172,-1.5105 z m -488.46569,-5.0858 c -10.3234,-4.5684 -20.073,-16.9626 -24.5648,-31.228 -5.3149,-16.8799 -8.2777,-27.687 -7.9642,-29.0509 0.1408,-0.6129 -0.8635,-6.9656 -2.2318,-14.1172 -1.3683,-7.1516 -2.4878,-17.0813 -2.4878,-22.0661 0,-17.2133 -4.05849,-14.3458 -22.83445,16.1336 -11.34415,18.4152 -18.64371,26.5368 -30.88589,34.3642 -5.98613,3.8274 -9.03839,4.5743 -18.62434,4.5575 -20.65268,-0.036 -36.07204,-6.3937 -38.58565,-15.9091 -2.64276,-10.0043 -6.56058,-22.586 -8.05667,-25.8731 -2.4755,-5.439 -2.30055,-74.6244 0.19501,-77.12 1.0816,-1.0816 1.96656,-3.6357 1.96656,-5.6759 0,-2.04 1.45458,-6.9581 3.23241,-10.929 1.77781,-3.9709 2.81742,-8.3013 2.31023,-9.623 -1.48356,-3.8661 9.0556,-35.5557 15.3558,-46.1725 20.1436,-33.945 47.62137,-49.6307 72.51742,-41.3964 4.9599,1.6404 14.68648,7.1667 21.61457,12.2806 12.1817,8.9917 12.7673,9.2239 17.7778,7.0488 2.8497,-1.2371 11.1291,-2.5518 18.3987,-2.9215 14.9606,-0.7609 19.5788,1.1404 24.1251,9.932 2.3133,4.4734 2.4037,6.481 0.6256,13.8928 -5.1835,21.6075 -1.05,172.1775 4.9272,179.4788 0.9015,1.1013 2.1909,7.2109 2.8652,13.5769 0.8723,8.2353 2.89,14.7101 6.9937,22.4431 6.0847,11.4661 5.9192,15.7632 -0.7296,18.9438 -5.466,2.6147 -29.6092,2.2322 -35.9401,-0.5694 z m -7.7763,-44.1272 c 0.5784,-1.5072 -0.1021,-5.0528 -1.512,-7.8791 -3.9827,-7.9837 -3.3346,-14.4986 1.6693,-16.7785 4.721,-2.151 5.3843,-3.9671 1.9327,-5.2916 -3.0174,-1.1579 -5.1439,-14.4083 -2.7711,-17.2673 1.3058,-1.5735 1.0867,-2.8863 -0.7963,-4.7692 -1.429,-1.429 -2.6255,-3.605 -2.659,-4.8355 -0.034,-1.2305 -1.9206,-4.5135 -4.1936,-7.2954 -3.7285,-4.5632 -4.3889,-4.8019 -6.7508,-2.4401 -2.3114,2.3114 -2.3356,3.4182 -0.2065,9.4527 1.8045,5.1143 2.0702,9.944 1.0555,19.1874 -1.3806,12.5768 -0.5445,17.0467 6.4168,34.3078 2.692,6.675 6.0444,8.2231 7.815,3.6088 z m -86.73287,-42.9739 c 2.81276,-5.1217 8.37142,-14.2645 12.35255,-20.3174 3.98114,-6.0529 8.55548,-13.5974 10.16522,-16.7655 4.17527,-8.2173 17.79981,-49.3999 17.80621,-53.8224 0.003,-2.0403 0.76725,-4.1805 1.6985,-4.756 0.9312,-0.5756 1.6931,-2.6903 1.6931,-4.6994 0,-2.0092 1.0741,-6.7261 2.3869,-10.4821 9.49899,-27.1776 9.23609,-33.6467 -1.298,-31.9373 -6.15075,0.9981 -8.16712,-0.9883 -15.33096,-15.1035 -4.59015,-9.0441 -8.27244,-8.2546 -15.79457,3.3863 -9.4686,14.6532 -14.5074,24.4965 -14.95073,29.2063 -0.21914,2.3281 -1.18132,6.5186 -2.13817,9.3122 -12.46454,36.3915 -17.52022,80.6519 -12.28082,107.5132 1.18063,6.0529 2.48555,12.7691 2.89981,14.9248 1.31149,6.8245 7.10139,3.9008 12.79096,-6.4592 z m 78.17787,-39.8206 c -0.4733,-1.2335 0.02,-3.8886 1.0967,-5.9001 1.6188,-3.0247 1.4217,-4.0591 -1.1395,-5.9801 -2.6639,-1.9982 -3.3926,-1.9336 -5.2132,0.4623 -2.636,3.4691 -2.7343,11.3647 -0.2004,16.0994 1.8117,3.3852 2.0358,3.4163 4.1165,0.5707 1.2103,-1.6552 1.8133,-4.0187 1.3399,-5.2522 z m 0.2467,-28.6329 c 0,-9.9389 -2.8364,-11.7321 -6.6058,-4.1761 -3.2515,6.5178 -3.3683,8.645 -0.6252,11.3881 4.3483,4.3483 7.231,1.4733 7.231,-7.212 z M 1272.7042,879.70361 c -9.2385,-1.79728 -27.264,-11.20247 -30.004,-15.65521 -4.3298,-7.03618 -5.5034,-15.43657 -6.0703,-43.45204 -0.4864,-24.03029 -0.1477,-28.62409 2.5591,-34.709 3.1197,-7.01313 3.1197,-7.01313 3.2393,10.20289 0.066,9.46882 0.5803,18.41681 1.1435,19.88446 2.3557,6.13892 4.0554,-0.22733 4.0554,-15.18982 0,-14.85598 0.2391,-15.98473 3.3863,-15.98473 3.5053,0 4.6723,4.08467 1.6931,5.92593 -0.9312,0.57552 -1.6931,3.68443 -1.6931,6.90871 0,4.61008 0.9041,6.27425 4.2328,7.79088 3.0377,1.38408 4.2328,3.25781 4.2328,6.63628 0,2.58922 -0.7619,5.17855 -1.6931,5.75407 -2.4793,1.53228 -2.0659,8.7595 0.8202,14.34074 1.3824,2.67322 5.8284,7.57676 9.88,10.89673 4.0516,3.31998 9.1448,9.49376 11.3181,13.71952 4.1859,8.13865 8.5842,10.48225 16.122,8.59039 6.5203,-1.63649 21.1899,-8.65219 28.5332,-13.64597 7.0909,-4.82206 11.2101,-4.6114 11.2101,0.57331 0,1.79202 1.0565,3.66366 2.3478,4.1592 2.7572,1.05802 12.8902,-8.27904 12.8902,-11.87765 0,-1.35936 2.8734,-5.31633 6.3853,-8.7933 6.3852,-6.32174 6.3852,-6.32174 6.2057,-20.60796 -0.2445,-19.46062 0.046,-18.59136 -5.8185,-17.4185 -4.5121,0.90244 -5.0733,0.56684 -5.0255,-3.00529 0.03,-2.21164 1.1139,-5.42005 2.4096,-7.12982 1.4994,-1.97856 2.0084,-5.24902 1.4003,-8.99633 -0.7225,-4.45232 -0.043,-7.12117 2.7853,-10.94727 3.7407,-5.05961 3.7407,-5.05961 0.239,-10.99463 -1.926,-3.26427 -3.5018,-6.99848 -3.5018,-8.29827 0,-4.63457 3.8267,-10.6453 7.9828,-12.53897 4.0058,-1.82516 4.0836,-2.11798 1.5107,-5.68935 -8.7712,-12.17537 -9.5512,-15.36621 -7.4084,-30.30292 2.2132,-15.42652 1.9097,-43.59881 -0.5389,-50.03931 -0.8504,-2.23665 -1.5462,-7.85048 -1.5462,-12.47516 0,-13.96644 -3.7279,-12.89796 -28.1032,8.05477 -7.561,6.49939 -10.8283,8.37288 -12.2034,6.99774 -1.3751,-1.37515 -2.5771,-1.29767 -4.4894,0.28939 -3.3179,2.75368 -3.3512,5.13891 -0.072,5.13891 1.3968,0 2.5397,0.81274 2.5397,1.80609 0,2.93081 -8.6725,13.43201 -11.0929,13.43201 -3.2565,0 -13.5924,13.43589 -15.6297,20.31746 -0.9649,3.25926 -2.5852,8.64669 -3.6006,11.97206 -1.0154,3.32538 -1.8461,7.28752 -1.8461,8.80476 0,1.51724 -1.0862,3.36791 -2.4137,4.11259 -1.3275,0.74469 -2.6608,4.22703 -2.9629,7.73855 -0.7239,8.4129 -3.4079,7.75338 -6.1062,-1.50039 -2.4453,-8.3862 -0.9211,-13.25559 4.7085,-15.04234 4.1092,-1.30423 4.3364,-5.95389 0.6401,-13.10173 -2.1283,-4.11557 -2.316,-6.00574 -0.8322,-8.38153 1.5941,-2.55258 1.3817,-3.06758 -1.2649,-3.06758 -3.6906,0 -8.061,12.71731 -6.4661,18.81597 0.6103,2.33415 -0.5415,5.86707 -3.1779,9.74688 -2.2744,3.34711 -4.1353,8.13218 -4.1353,10.63351 0,5.57157 -1.5507,9.90417 -3.5447,9.90417 -2.0106,0 -6.6141,-11.29715 -6.6141,-16.23135 0,-3.82103 5.7392,-15.57723 11.9255,-24.42842 1.6367,-2.34173 6.1013,-10.65345 9.9213,-18.47051 3.82,-7.81707 8.8481,-16.70742 11.1737,-19.75636 2.3255,-3.04892 4.2282,-5.87504 4.2282,-6.28026 0,-0.97762 15.4667,-16.4204 16.4458,-16.4204 0.4192,0 3.938,-2.56615 7.8195,-5.70255 6.0938,-4.92387 11.0886,-7.95918 30.7612,-18.69318 7.1859,-3.92088 11.0053,-8.45627 11.0053,-13.06841 0,-2.58752 0.9013,-6.68282 2.003,-9.10069 1.515,-3.32515 1.5325,-5.71625 0.072,-9.81511 -1.062,-2.98045 -2.3715,-15.28743 -2.9099,-27.34884 -0.5384,-12.06142 -1.3143,-22.26523 -1.7242,-22.67515 -0.4099,-0.4099 -1.7969,0.12749 -3.0822,1.19423 -2.9286,2.43044 -18.109,24.74902 -21.4655,31.55891 -9.6492,19.57704 -33.5066,43.8102 -59.6061,60.54484 -4.9996,3.20571 -18.1322,3.97061 -22.9397,1.33611 -1.617,-0.88609 -5.6066,-2.70048 -8.8659,-4.03193 -19.5498,-7.98644 -23.6083,-11.22912 -26.8839,-21.48008 -1.402,-4.38731 -1.4107,-9.29972 -0.033,-18.62433 2.2317,-15.10367 4.1546,-30.64469 6.4901,-52.45361 0.9473,-8.84656 2.1419,-17.98942 2.6546,-20.31746 0.5127,-2.32804 1.3773,-8.80423 1.9214,-14.39153 0.5441,-5.5873 1.6664,-11.44198 2.494,-13.01039 0.8277,-1.56841 1.5048,-4.01354 1.5048,-5.43363 0,-1.42009 2.0953,-6.06419 4.6561,-10.32022 3.4787,-5.78135 6.2311,-8.21232 10.8844,-9.61294 5.5715,-1.67704 7.0457,-1.39566 13.9808,2.66858 8.7408,5.12251 11.6586,8.91143 15.9918,20.76668 4.6961,12.84798 3.4367,25.60962 -5.5686,56.4234 -1.4968,5.12169 -3.213,17.50264 -3.8139,27.51323 -1.0417,17.3568 -0.9375,18.20105 2.2472,18.20105 2.8786,0 16.0902,-16.75345 25.1248,-31.8604 3.1029,-5.18855 53.0136,-75.55415 57.3733,-80.88662 2.3534,-2.87859 7.0206,-10.87859 10.3714,-17.77777 3.3508,-6.8992 7.0005,-14.37349 8.1104,-16.60955 3.0802,-6.20546 7.0068,-8.03586 12.6607,-5.90176 2.8858,1.0893 6.3568,1.23804 8.6961,0.37267 10.6057,-3.9233 26.6036,6.53313 29.0001,18.95484 2.0041,10.38755 1.9708,29.38831 -0.055,31.41411 -3.5585,3.5585 -6.4146,17.37143 -5.1126,24.72574 0.7113,4.0173 1.0139,11.11372 0.6724,15.7698 -0.3414,4.65609 -1.1011,18.94768 -1.688,31.75907 -1.2703,27.72726 -0.671,29.23855 10.9062,27.50244 4.1479,-0.622 8.763,-1.73787 10.2557,-2.47971 1.4928,-0.74182 13.7618,-6.7766 27.2644,-13.41061 22.0831,-10.84966 25.816,-13.34361 37.1447,-24.8162 12.7579,-12.91989 18.4123,-15.41977 17.3045,-7.6505 -0.7116,4.99042 -10.9641,18.89957 -20.8315,28.26113 -7.1273,6.76198 -19.0122,14.20728 -25.9986,16.28684 -22.1561,6.59495 -52.7016,20.62673 -55.2442,25.37768 -1.211,2.26267 -1.471,7.25843 -0.7206,13.84195 3.3007,28.95666 4.0689,50.78378 2.5676,72.94696 -0.3785,5.5873 -0.1833,22.99459 0.4337,38.68287 0.6171,15.68828 0.4173,34.35494 -0.444,41.48148 -0.8613,7.12654 -2.0415,19.05258 -2.6226,26.50231 -2.0296,26.01763 -13.9075,60.20584 -24.9045,71.68276 -6.0695,6.3345 -16.2586,12.12677 -21.3319,12.12677 -1.8446,0 -3.7656,0.66639 -4.269,1.48087 -0.5033,0.81448 -4.9293,1.93055 -9.8353,2.48015 -4.9061,0.54961 -12.7297,1.74255 -17.3858,2.65101 -9.7065,1.89384 -46.0511,2.05741 -55.3463,0.24909 z m 101.9072,-70.35318 c 0,-0.46561 -0.381,-0.84657 -0.8466,-0.84657 -0.4656,0 -0.8466,0.38096 -0.8466,0.84657 0,0.4656 0.381,0.84656 0.8466,0.84656 0.4656,0 0.8466,-0.38096 0.8466,-0.84656 z m 4.5149,-17.21341 c -0.6208,-0.6208 -1.1287,-0.11287 -1.1287,1.12875 0,1.24162 0.5079,1.74955 1.1287,1.12875 0.6208,-0.62081 0.6208,-1.63669 0,-2.2575 z m 1.996,-40.26474 c 0.3741,-1.93019 -0.236,-2.7443 -1.6932,-2.25908 -1.2529,0.41722 -2.5413,2.11652 -2.863,3.77622 -0.3742,1.93019 0.2359,2.74429 1.6931,2.25908 1.2529,-0.41722 2.5413,-2.11652 2.8631,-3.77622 z m -79.8796,-110.42309 c -0.6208,-0.6208 -1.1287,-0.11287 -1.1287,1.12875 0,1.24162 0.5079,1.74955 1.1287,1.12875 0.6208,-0.62081 0.6208,-1.63669 0,-2.2575 z m 49.3404,-136.14109 c -0.3337,-1.00106 -1.3305,-1.82011 -2.2151,-1.82011 -0.8847,0 -1.8815,0.81905 -2.2152,1.82011 -0.3337,1.00106 0.6631,1.82011 2.2152,1.82011 1.552,0 2.5488,-0.81905 2.2151,-1.82011 z m -2.928,315.75309 c 0.081,-1.9724 0.4824,-2.37359 1.0229,-1.02293 0.4891,1.22221 0.4289,2.68254 -0.1336,3.24515 -0.5626,0.56261 -0.9628,-0.4374 -0.8893,-2.22222 z m 3.3862,-15.2381 c 0.081,-1.9724 0.4825,-2.37358 1.0229,-1.02293 0.4891,1.22221 0.429,2.68255 -0.1336,3.24516 -0.5626,0.5626 -0.9627,-0.4374 -0.8892,-2.22223 z M 560.40055,786.68867 c -4.05208,-3.11555 -4.05208,-3.11555 -4.40242,-52.8724 -0.19596,-27.83055 -1.25438,-56.09488 -2.40188,-64.13958 -2.05154,-14.38273 -2.05154,-14.38273 2.28602,-17.84139 4.33756,-3.45864 4.33756,-3.45864 4.33756,-35.04115 0,-18.39216 0.68011,-32.00283 1.62842,-32.58892 0.99417,-0.61443 1.04437,-2.54264 0.12885,-4.95057 -1.81145,-4.76447 -2.12795,-41.8756 -0.70217,-82.3319 1.23767,-35.11858 0.78254,-36.31272 -11.38641,-29.87442 -13.77985,7.29058 -47.44925,18.53046 -51.19867,17.09166 -4.62965,-1.77656 -8.40594,2.07907 -11.13138,11.36523 -2.95366,10.06376 -3.19498,31.31693 -0.41457,36.51215 1.05139,1.96455 1.78282,15.83072 1.79098,33.95222 0.0118,27.43629 -0.3982,31.92557 -3.93581,43.03788 -2.17226,6.82354 -5.31556,17.61802 -6.98509,23.98771 -2.17792,8.3093 -4.18953,12.33742 -7.12019,14.25766 -3.49686,2.29124 -4.3038,2.33018 -5.60737,0.27058 -0.83748,-1.32319 -1.53437,-3.35819 -1.54863,-4.52221 -0.0135,-1.16402 -1.93068,-2.1164 -4.25872,-2.1164 -4.10892,0 -4.23281,0.34436 -4.23281,11.76569 0,11.35253 -0.19884,11.91734 -5.66246,16.08465 -3.11436,2.37544 -6.94393,4.31897 -8.51017,4.31897 -1.56624,0 -6.10077,-3.25308 -10.07676,-7.22907 -7.22908,-7.22907 -7.22908,-7.22907 -9.53619,-50.37037 -1.26889,-23.72771 -2.13401,-57.23654 -1.92246,-74.46405 0.21156,-17.22751 -0.69758,-44.65609 -2.02031,-60.95238 -1.32274,-16.2963 -2.11481,-40.67725 -1.76016,-54.1799 0.35465,-13.50264 1.04068,-41.69312 1.52452,-62.6455 1.29407,-56.03994 1.46046,-59.94541 2.63262,-61.79894 0.5889,-0.93122 1.59811,-4.35979 2.24268,-7.61905 1.08028,-5.46253 3.76904,-12.69614 7.86848,-21.16871 2.59865,-5.37082 11.13315,-9.30748 20.17815,-9.30748 4.52566,0 8.66954,0.71365 9.20862,1.58592 0.53909,0.87224 3.06023,2.68199 5.60257,4.02163 2.54234,1.33965 7.10473,3.73247 10.13867,5.31737 9.30656,4.86167 13.95592,12.56176 13.94627,23.09733 -0.005,5.0338 1.29788,12.79673 2.89439,17.25098 2.69005,7.50515 2.70163,8.49773 0.15797,13.54497 -4.47543,8.88022 -6.43019,16.46155 -6.43019,24.93881 0,4.39002 -0.8057,12.08585 -1.79045,17.10185 -4.94902,25.2087 -5.03149,26.93572 -1.60688,33.6485 2.723,5.33752 3.15532,9.12571 2.63595,23.09738 -0.34168,9.19199 -1.15604,18.81351 -1.80969,21.38115 -1.45744,5.72499 2.8416,13.10935 7.63204,13.10935 1.80937,0 5.79179,-1.07337 8.84984,-2.38525 3.05805,-1.3119 9.36962,-3.54914 14.0257,-4.97169 4.65609,-1.42252 10.75133,-3.34841 13.54498,-4.27973 2.79365,-0.93134 9.55347,-3.074 15.02183,-4.76148 18.70226,-5.77135 17.26596,0.4378 18.54974,-80.19192 0.61459,-38.60033 0.63304,-78.60581 0.041,-88.90108 -1.30712,-22.73017 0.34548,-28.87253 9.9891,-37.12711 6.93257,-5.93403 11.97853,-7.47335 13.96446,-4.26005 0.57553,0.93122 4.05183,1.69313 7.72511,1.69313 3.67329,0 9.52179,1.52381 12.9967,3.38624 3.4749,1.86243 7.48902,3.38624 8.92027,3.38624 3.73978,0 14.84796,9.59655 17.86785,15.43633 1.86649,3.60943 2.50465,9.7184 2.32753,22.28148 -0.13426,9.51976 0.29422,20.86905 0.95206,25.22066 0.86415,5.71623 0.48542,9.24036 -1.36467,12.69841 -7.82488,14.62567 -8.53968,17.78783 -6.6218,29.29387 1.01286,6.07646 2.67246,14.85761 3.68801,19.5137 2.43205,11.15047 2.42363,10.70969 0.37025,19.37976 -0.98059,4.14034 -1.38376,8.17371 -0.89592,8.96304 0.48784,0.78934 -0.0354,2.54653 -1.1627,3.90488 -1.28648,1.55011 -1.61471,4.51707 -0.88152,7.96816 5.12681,24.1312 7.76664,66.57254 4.3531,69.98608 -1.62042,1.62042 -3.84273,23.39381 -3.44096,33.71342 0.22989,5.905 0.25965,23.72835 0.0579,34.70899 -0.41852,22.7847 2.0203,81.05631 3.55435,84.92575 1.2658,3.19277 1.24584,5.51001 -0.0686,7.96616 -1.01955,1.90501 -1.93544,11.28028 -2.03533,20.83391 -0.12275,11.74212 -1.01831,19.12481 -2.76392,22.78537 -2.33346,4.89334 -2.31442,6.08462 0.19767,12.36295 1.90871,4.77032 2.27738,7.86786 1.17636,9.8834 -0.88199,1.61458 -2.07913,6.61362 -2.66033,11.10901 -0.91825,7.10238 -1.70614,8.39981 -6.01268,9.90107 -3.62437,1.26344 -4.95601,2.82049 -4.95601,5.79485 0,2.44309 0.99034,4.06716 2.48012,4.06716 4.56826,0 6.38812,6.24679 4.34613,14.91842 -1.02817,4.36631 -2.94754,12.71328 -4.26528,18.54886 -2.9384,13.01269 -3.42658,13.83951 -7.53654,12.76473 -1.80348,-0.47162 -5.01987,0.3618 -7.14753,1.85207 -2.12765,1.49027 -6.32063,2.70957 -9.31773,2.70957 -2.99709,0 -5.92015,0.76191 -6.49568,1.69312 -0.57552,0.93122 -6.1443,1.67618 -12.37506,1.65547 -8.36097,-0.0278 -12.39013,-0.85379 -15.38072,-3.1532 z m 31.42422,-16.56224 c -0.62082,-0.6208 -1.12875,-0.11286 -1.12875,1.12876 0,1.24161 0.50793,1.74955 1.12875,1.12875 0.6208,-0.62082 0.6208,-1.63669 0,-2.25751 z m 9.7556,-13.38372 c 3.6905,-3.69049 3.39249,-5.24019 -2.41874,-12.57747 -2.79366,-3.52726 -5.07937,-6.90585 -5.07937,-7.50798 0,-0.60211 1.67096,-3.35483 3.71324,-6.11718 4.44266,-6.00901 3.04098,-8.05252 -5.93809,-8.65724 -7.09336,-0.47771 -10.03841,2.20072 -8.66089,7.8768 0.45388,1.87017 1.06743,8.42719 1.36347,14.57115 0.29603,6.14397 1.08081,12.04873 1.74393,13.1217 1.76886,2.86205 12.18875,2.37792 15.27645,-0.70978 z m -9.46054,-45.7646 c 3.72118,-2.60641 3.75492,-2.83855 0.87518,-6.02064 -2.47855,-2.73876 -2.63645,-3.88423 -0.91529,-6.64022 1.43318,-2.29491 1.56243,-4.29752 0.41563,-6.44033 -1.27292,-2.37848 -0.68477,-4.43752 2.50098,-8.75556 2.31896,-3.14318 4.1653,-7.9766 4.1653,-10.90411 0,-5.88063 2.58966,-9.32185 7.01511,-9.32185 1.62338,0 4.13509,-1.68965 5.58156,-3.75479 2.33436,-3.33277 2.34533,-4.03941 0.0975,-6.28715 -2.24774,-2.24774 -3.08632,-1.87329 -7.46108,3.33151 -4.92873,5.86387 -4.92873,5.86387 -10.18384,0.86848 -4.80545,-4.56795 -5.48566,-4.76481 -7.94966,-2.30081 -1.6851,1.68509 -2.81603,6.09374 -3.01877,11.76787 -0.17832,4.99032 -1.21138,10.68234 -2.29568,12.64894 -1.55422,2.81886 -1.45926,4.25224 0.44874,6.77249 3.25425,4.29848 3.15027,13.37146 -0.21203,18.50299 -4.96046,7.5706 2.81961,12.21833 10.93626,6.53318 z m 19.40241,-31.72831 c 0.47909,-1.24847 0.21137,-3.33734 -0.59491,-4.64193 -1.97574,-3.19681 -5.85336,0.53511 -4.42462,4.25837 1.24768,3.25139 3.84295,3.44971 5.01953,0.38356 z m -0.16762,-50.64011 c 0.74955,-9.97461 0.007,-14.81482 -2.27404,-14.81482 -0.84589,0 -1.99513,2.28572 -2.55386,5.07937 -0.55873,2.79365 -1.65286,5.07936 -2.43139,5.07936 -2.38476,0 -8.31995,-7.24385 -8.31995,-10.15438 0,-1.50886 -1.02674,-4.14755 -2.28167,-5.86375 -1.85947,-2.54299 -1.88683,-3.93433 -0.14781,-7.51938 2.8891,-5.95604 0.89301,-17.70439 -3.14001,-18.4811 -2.58963,-0.4987 -2.83334,0.33319 -1.86734,6.3742 0.87065,5.44483 0.43799,7.69143 -2.00012,10.38551 -2.55924,2.82793 -2.74902,4.01756 -1.06987,6.7063 1.12268,1.79771 2.04125,5.98019 2.04125,9.29443 0,7.19888 5.84408,13.89788 13.45158,15.41939 2.87191,0.57437 5.51106,2.39611 6.0833,4.19913 1.84533,5.81413 3.83336,3.29964 4.50995,-5.70426 z m -151.99409,2.30825 c 1.27438,-2.06201 -3.54711,-5.82157 -5.7332,-4.47049 -2.99865,1.85327 -1.95103,5.97176 1.51904,5.97176 1.80747,0 3.70385,-0.67557 4.21416,-1.50127 z m 156.46783,-51.93519 c -0.77504,-3.99797 -4.54861,-5.10051 -5.84996,-1.70922 -1.30314,3.39596 2.63357,8.51017 4.84699,6.29675 0.87177,-0.87177 1.32311,-2.93616 1.00297,-4.58753 z m -0.69184,-23.92505 c 0.75785,-1.9749 -0.5051,-4.1196 -4.06788,-6.9079 -5.43213,-4.25126 -5.43814,-7.15916 -0.0152,-7.15916 1.77471,0 4.04832,-1.53512 5.05246,-3.41137 2.24308,-4.19124 0.94581,-4.78505 -11.86529,-5.43116 -8.787,-0.44316 -9.29251,-0.70835 -8.96368,-4.70244 1.31646,-15.98957 1.00286,-23.59506 -1.0762,-26.10017 -2.09302,-2.52194 -2.49357,-2.46324 -4.70137,0.68881 -2.29276,3.27338 -2.87675,13.07727 -1.90519,31.98326 0.29823,5.80309 -0.39945,8.05061 -3.20399,10.32159 -5.5228,4.47209 -5.50107,8.72569 0.0542,10.61784 3.665,1.2483 5.44091,0.99763 7.75236,-1.0942 4.00974,-3.62875 7.49389,-3.4194 11.19729,0.67281 3.74073,4.13345 10.24529,4.42267 11.74207,0.52209 z M 445.08755,495.94177 c 0,-0.36597 -1.14286,-0.66542 -2.53968,-0.66542 -1.39683,0 -2.53969,0.738 -2.53969,1.64 0,0.90197 1.14286,1.20142 2.53969,0.66541 1.39682,-0.53603 2.53968,-1.27401 2.53968,-1.63999 z m 172.35828,-24.91261 c 3.13238,-8.6624 2.65712,-11.63285 -1.7604,-11.00284 -7.43746,1.06071 -10.43786,16.6257 -3.20486,16.6257 1.78387,0 3.72822,-2.20186 4.96526,-5.62286 z m -21.57489,0.12021 c 4.04478,-4.84851 4.00986,-7.89044 -0.14798,-12.88108 -4.24834,-5.09936 -7.74593,-3.74643 -8.87869,3.43446 -0.80322,5.09178 2.20798,13.25614 4.88916,13.25614 0.52767,0 2.38953,-1.71428 4.13744,-3.80952 z M 446.17335,422.04884 c 0.13155,-4.42328 -0.24936,-8.03713 -0.84656,-8.03076 -0.59718,0.007 -2.88759,2.65742 -5.0898,5.89121 -4.62503,6.79164 -3.7944,11.52969 1.88003,10.72391 3.3078,-0.46972 3.84901,-1.61508 4.05633,-8.58436 z m 145.36923,-19.89418 c 0,-3.05524 -4.17759,-3.98242 -7.61905,-1.691 -2.25749,1.50312 -2.25749,1.87889 0,3.38201 3.44146,2.29142 7.61905,1.36423 7.61905,-1.69101 z m 1.57218,-9.43311 c 3.14767,-3.14766 3.17467,-3.37397 0.90794,-7.60941 -2.07464,-3.87647 -12.01827,-4.54314 -14.95653,-1.00275 -2.1921,2.6413 -0.86793,4.64189 2.27432,3.43609 1.28199,-0.49194 2.60894,0.93695 3.25296,3.50291 1.23511,4.92109 4.61061,5.58387 8.52131,1.67316 z m 21.79622,-24.62247 c 2.31686,-3.6795 0.3333,-8.27246 -3.57259,-8.27246 -4.09947,0 -7.63938,7.24637 -4.8853,10.00046 2.51249,2.51249 6.27135,1.74454 8.45789,-1.728 z m -20.2539,-2.24891 c 1.15523,-3.01049 -0.55286,-14.27574 -2.33121,-15.37483 -0.71499,-0.44189 -2.09648,1.48138 -3.06997,4.27393 -0.97348,2.79253 -2.57151,5.07735 -3.55117,5.07735 -1.95833,0 -2.45085,5.53847 -0.65245,7.33685 2.06544,2.06546 8.65394,1.16458 9.6048,-1.3133 z m -1.74754,-26.49786 c -1.33789,-1.33789 -2.95481,-1.24944 -5.84127,0.31952 -3.9913,2.16949 -3.9913,2.16949 0.2415,3.28676 4.97446,1.31305 8.34709,-0.85895 5.59977,-3.60628 z M 1246.5877,767.1597 c -1.0877,-2.34667 -1.2778,-5.02866 -0.4492,-6.336 0.7903,-1.2468 1.4485,-6.31992 1.4628,-11.27357 0.024,-8.3656 0.2971,-8.96814 3.8354,-8.46561 3.0815,0.43764 3.7116,1.46162 3.297,5.35802 -0.2819,2.64933 0.7021,6.67085 2.1867,8.9367 2.8523,4.35307 2.4493,5.93805 -3.0677,12.06642 -4.2909,4.76636 -4.9349,4.74102 -7.265,-0.28596 z M 749.0029,717.64317 c -2.79365,-0.37803 -6.74359,-1.52429 -8.77764,-2.54727 -2.03405,-1.02299 -5.25228,-1.4536 -7.15162,-0.9569 -13.56526,3.54739 -47.54511,-17.35523 -56.32678,-34.64926 -7.85825,-15.47556 -8.62996,-18.31731 -7.52572,-27.71273 0.81353,-6.92186 0.39704,-10.63299 -1.63412,-14.56081 -1.49924,-2.89926 -3.4786,-11.83128 -4.39854,-19.84898 -3.7442,-32.63207 -3.75761,-32.08906 1.00961,-40.848 3.55706,-6.53551 4.09778,-8.96452 2.77189,-12.45186 -0.90597,-2.38288 -1.02332,-4.71808 -0.26079,-5.18936 0.76255,-0.47129 1.83243,-5.17821 2.37755,-10.45986 0.54512,-5.28164 1.79688,-10.40875 2.78168,-11.39355 0.9848,-0.98481 1.79056,-3.62344 1.79056,-5.86361 0,-2.24018 1.99587,-6.44502 4.43527,-9.34408 3.96551,-4.71274 4.33434,-6.26291 3.48234,-14.63594 -1.05444,-10.36246 1.11728,-16.57662 9.66524,-27.65607 9.72309,-12.60258 36.80738,-31.33733 52.8234,-36.53899 6.26182,-2.03371 7.56461,-1.91375 13.8082,1.2715 7.84774,4.00362 13.64656,10.59923 14.95365,17.00834 0.49142,2.40955 1.71515,7.16388 2.71945,10.56521 1.93535,6.55467 0.19868,20.73988 -4.65052,37.98575 -1.33222,4.73793 -2.42221,13.2644 -2.42221,18.9477 0,5.68331 -0.66819,10.74623 -1.48487,11.25097 -0.81669,0.50475 -2.34687,4.34097 -3.40042,8.52497 -1.19077,4.72899 -4.66455,10.70251 -9.1812,15.78802 -3.99612,4.49942 -8.98481,10.96237 -11.08595,14.36211 -2.20022,3.55999 -7.64496,8.36959 -12.83923,11.34144 -13.04276,7.46231 -13.2051,7.79799 -12.05955,24.93619 0.5482,8.20128 1.3355,23.01389 1.74957,32.9169 0.62695,14.99408 1.50557,19.59525 5.25347,27.5109 4.43674,9.37053 12.72946,18.27029 20.19266,21.67074 5.51037,2.5107 15.30795,-2.61531 21.36334,-11.17711 2.68772,-3.80021 6.21824,-8.48208 7.84557,-10.40416 1.62732,-1.92207 6.0064,-7.22374 9.73126,-11.78149 3.72487,-4.55773 15.72487,-17.95051 26.66667,-29.76171 19.89418,-21.47491 19.89418,-21.47491 19.89418,-31.70617 0,-5.62719 -0.704,-12.08291 -1.56443,-14.34604 -0.93897,-2.46967 -0.95803,-6.81365 -0.0477,-10.86529 0.8342,-3.71278 1.89209,-16.95836 2.35086,-29.4346 1.18493,-32.22381 4.22324,-69.14695 6.21709,-75.55413 0.935,-3.00445 1.7654,-10.07397 1.8453,-15.71004 0.08,-5.63608 0.799,-10.65143 1.598,-11.14522 0.799,-0.4938 1.4569,-2.56715 1.4621,-4.60743 0.019,-7.64488 3.8823,-17.21473 8.80469,-21.81296 4.6666,-4.35921 6.1733,-4.75378 18.1533,-4.75378 15.7812,0 27.7557,3.63837 35.2548,10.71198 5.2688,4.96977 5.5027,5.73651 5.5027,18.0394 0,9.13493 -1.2108,16.50238 -4.1888,25.48796 -2.807,8.46993 -4.2078,16.54839 -4.2467,24.49082 -0.032,6.51852 -0.9523,18.709 -2.0453,27.08995 -2.4547,18.82096 -2.4252,42.79778 0.056,45.27873 1.3357,1.33572 2.1384,0.94808 2.894,-1.39773 0.5751,-1.78534 2.0222,-5.91275 3.2158,-9.17201 1.1936,-3.25926 5.3906,-15.83069 9.3266,-27.93651 10.119,-31.12235 17.1758,-44.56785 29.7062,-56.60017 13.6559,-13.11309 22.3874,-15.92617 44.4771,-14.32943 15.70249,1.13505 15.70249,1.13505 23.75599,11.48205 10.1617,13.0557 11.677,16.44533 12.9508,28.97136 1.0077,9.90944 2.0965,14.31354 7.2503,29.32723 2.0702,6.03073 2.1498,8.60889 0.453,14.66935 -2.2401,8.00083 -0.9353,14.86441 4.9939,26.26797 7.1688,13.78789 8.336,22.85012 9.0498,70.26455 0.495,32.8765 1.3093,47.01991 2.8997,50.3635 1.9393,4.07734 1.818,5.08375 -0.9859,8.18209 -5.4115,5.97957 -13.7018,8.33272 -29.3568,8.33272 -13.5723,0 -15.0957,-0.35369 -20.3244,-4.71883 -6.40709,-5.34888 -7.96689,-11.07838 -10.23829,-37.60921 -2.6544,-31.00299 -5.2811,-55.09449 -6.8301,-62.6455 -0.8597,-4.19048 -2.853,-18.12196 -4.4297,-30.95885 -1.5767,-12.83688 -3.5127,-23.73899 -4.3021,-24.2269 -0.7895,-0.48792 -1.436,-3.31835 -1.4368,-6.28984 0,-6.66377 -4.6436,-29.364 -6.8461,-33.47942 -0.89,-1.66288 -1.6181,-4.41405 -1.6181,-6.11371 0,-1.69966 -1.6276,-4.10673 -3.6169,-5.34906 -3.1259,-1.95215 -4.2034,-1.82085 -7.9377,0.96718 -6.4699,4.83049 -10.6814,11.19858 -12.2314,18.49498 -0.7633,3.59279 -2.1854,9.96091 -3.1603,14.15138 -0.9748,4.19048 -2.6124,11.80953 -3.6389,16.93122 -1.0266,5.12169 -2.8951,13.12169 -4.1523,17.77778 -1.2572,4.65608 -2.7851,14.39885 -3.3954,21.65057 -0.6103,7.25174 -2.5658,17.32795 -4.3455,22.39157 -3.8808,11.04159 -4.2788,24.94224 -0.7968,27.83201 2.8204,2.34077 1.678,6.85601 -1.7347,6.85601 -2.988,0 -7.4901,6.91984 -11.0159,16.93174 -2.5583,7.26442 -2.5687,8.9237 -0.1277,20.29306 2.6585,12.38178 2.6585,12.38178 -3.1866,17.31269 -5.2526,4.43106 -6.7033,4.83219 -14.3108,3.9572 -4.6561,-0.53555 -14.9418,-1.60261 -22.8571,-2.37127 -26.42849,-2.56646 -28.14819,-5.14016 -32.40832,-48.50438 -1.00634,-10.24338 -2.12147,-18.93712 -2.47807,-19.31943 -2.44333,-2.61946 -26.06588,32.48037 -26.06588,38.7304 0,1.80776 -0.93837,5.41794 -2.08527,8.0226 -3.23205,7.34019 -28.30107,37.75162 -31.11975,37.75162 -0.68055,0 -2.44019,1.05991 -3.91034,2.35535 -3.02678,2.66709 -13.71055,4.31846 -21.29734,3.29189 z m -52.48678,-53.07784 c 0,-3.62921 -4.91965,-3.10502 -5.63321,0.60022 -0.43575,2.26269 0.25381,2.95225 2.5165,2.51651 1.71418,-0.33013 3.11671,-1.73266 3.11671,-3.11673 z m 321.97528,-9.57117 c -0.6208,-0.6208 -1.6367,-0.6208 -2.2575,0 -0.6208,0.62082 -0.1128,1.12875 1.1288,1.12875 1.2416,0 1.7495,-0.50793 1.1287,-1.12875 z m 2.3531,-16.22574 c 4.1136,-4.93103 4.0884,-7.49623 -0.095,-9.73545 -1.8625,-0.99674 -3.4498,-1.59498 -3.5274,-1.32941 -0.078,0.26557 -0.3541,2.00665 -0.6146,3.86909 -0.2604,1.86243 -0.6681,4.14815 -0.9059,5.07936 -0.6735,2.63667 -0.1367,5.92593 0.967,5.92593 0.5491,0 2.4285,-1.71429 4.1764,-3.80952 z m -330.2543,-0.42328 c 0,-0.46561 -0.38095,-0.84657 -0.84656,-0.84657 -0.46561,0 -0.84656,0.38096 -0.84656,0.84657 0,0.4656 0.38095,0.84656 0.84656,0.84656 0.46561,0 0.84656,-0.38096 0.84656,-0.84656 z m 323.5132,-38.56085 c -0.2094,-2.02447 -2.5317,-1.63241 -3.2592,0.55026 -0.3725,1.11746 0.237,1.72699 1.3544,1.3545 1.1175,-0.37249 1.9747,-1.22963 1.9048,-1.90476 z M 683.81771,570.7202 c 0,-1.34187 -0.70926,-2.87811 -1.57613,-3.41386 -2.01293,-1.24407 -4.03743,1.92638 -2.65667,4.16049 1.55692,2.51914 4.2328,2.04714 4.2328,-0.74663 z m 56.61708,-39.28688 c 2.53692,-5.18109 5.73221,-13.71867 7.10063,-18.97239 2.67388,-10.26572 3.66854,-35.9189 1.63461,-42.15812 -1.31631,-4.03781 -5.92046,-5.26664 -6.34374,-1.69312 -0.13782,1.16402 -0.36341,3.25926 -0.50118,4.65608 -0.2422,2.45547 -3.04725,9.51203 -6.24027,15.69839 -0.85163,1.65 -1.97556,6.60238 -2.49763,11.00529 -1.17768,9.93195 -3.83082,17.0931 -7.80534,21.06761 -2.52751,2.52751 -2.86236,4.71125 -1.95827,12.77105 0.59981,5.34722 1.86298,10.69997 2.80703,11.89501 2.49493,3.1582 8.1154,-2.65187 13.80416,-14.2698 z m -53.23084,10.91182 c 0,-2.73511 -0.50067,-3.2242 -1.88422,-1.84065 -1.03631,1.03631 -1.37231,2.7125 -0.74663,3.72487 1.75135,2.83374 2.63085,2.20384 2.63085,-1.88422 z m 434.28575,168.71983 c -3.7249,-1.36149 -9.4392,-2.58528 -12.6985,-2.71955 -3.2592,-0.13426 -7.4287,-1.27256 -9.2656,-2.52959 -1.8368,-1.25702 -4.5901,-2.28551 -6.1183,-2.28551 -4.989,0 -11.0635,-8.01419 -13.1148,-17.30248 -2.3682,-10.72356 -6.075,-77.63514 -5.7478,-103.75572 0.6843,-54.64134 3.7388,-119.07232 6.02,-126.98413 4.9242,-17.07855 12.2005,-29.62963 17.1775,-29.62963 1.278,0 4.5873,-1.90476 7.354,-4.2328 2.7668,-2.32804 6.1931,-4.2328 7.6141,-4.2328 3.5607,0 20.1917,19.08576 22.5023,25.82366 1.1525,3.36101 1.3198,7.02335 0.4303,9.41946 -1.7018,4.58423 0.8375,10.47116 4.5166,10.47116 1.9318,0 28.8111,-13.19075 44.8222,-21.99607 23.4507,-12.89673 37.3409,-16.78722 39.5337,-11.07291 1.249,3.25484 -7.0003,9.78278 -38.6871,30.61453 -31.2709,20.55824 -40.6698,27.85443 -46.3644,35.99177 -10.7687,15.38775 -12.2472,21.38054 -8.555,34.67627 1.534,5.52386 1.2752,7.23357 -1.8635,12.31206 -2.888,4.67298 -3.4514,7.55953 -2.7134,13.90283 0.5123,4.40296 1.6911,14.65398 2.6196,22.78005 0.9285,8.12609 2.5833,16.44726 3.6773,18.49153 2.7672,5.17061 2.7365,24.22744 -0.044,27.57828 -1.856,2.23643 -1.7876,4.18638 0.406,11.55784 1.4512,4.87714 3.0804,11.53419 3.6204,14.79345 0.54,3.25926 2.1205,8.10826 3.5123,10.77555 1.3918,2.66729 2.5364,6.85777 2.5435,9.31217 0.01,2.4544 1.5251,9.41492 3.3733,15.46783 4.6639,15.27454 4.4051,17.71844 -2.3163,21.8725 -6.6389,4.10306 -12.7902,4.35211 -22.234,0.90025 z"
       id="path105"
       inkscape:export-xdpi="96"
       inkscape:export-ydpi="96" />
    <path
       style="fill:#000000;stroke-width:1.69312"
       id="path82"
       d="" />
  </g>
</svg>
